<svg id="Layer_1" data-name="Layer 1" xmlns="http://www.w3.org/2000/svg" viewBox="0 0 290 240"><defs><style>.cls-1{fill:#0080ff;}.cls-2{opacity:0.88;}</style></defs><path class="cls-1" d="M154,203.76v.12c0,9.8-6.69,17.05-16.49,17.05-5.2,0-8.8-2.23-11-5.89v19.47h-7.75V187.27h7.75v5.27c2.17-3.66,5.83-5.89,11-5.89C147.36,186.65,154,194,154,203.76Zm-7.87-.06c0-5.71-4-9.61-9.3-9.61a9.31,9.31,0,0,0-9.42,9.61v.12c0,5.77,4.15,9.73,9.3,9.73a9.34,9.34,0,0,0,9.42-9.73Z"/><path class="cls-1" d="M159.58,203.82v-.06a16.79,16.79,0,0,1,17.17-17.17c9.79,0,17.17,7.25,17.17,17v.13a16.7,16.7,0,0,1-17.17,17.11C167,220.87,159.58,213.68,159.58,203.82Zm26.53,0v-.12a9.34,9.34,0,0,0-9.42-9.74c-5.15,0-9.3,4-9.3,9.74v.12a9.36,9.36,0,0,0,9.42,9.67C182.08,213.49,186.11,209.52,186.11,203.82Z"/><path class="cls-1" d="M211.72,207.29l-3.72,4.4v8.56h-7.75V174.31H208V201l11.71-13.7h9.12L216.3,201.9l14.2,18.35h-8.93Z"/><path class="cls-1" d="M264.48,205.68H239.86c.69,5.08,4,8.49,9.24,8.49a9,9,0,0,0,8.37-5.33l6,3.16a16.07,16.07,0,0,1-14.82,8.87c-9.74,0-16.8-7.25-16.8-17.05v-.12c0-9.67,7.06-17.11,16.43-17.11,11,0,16.18,8.55,16.18,16.49Zm-7.63-5.08c0-3-2.17-7.32-8.31-7.32-4.77,0-7.56,3.22-8.43,7.32Z"/><path class="cls-1" d="M270.86,187.27h7.75v6.63A12.25,12.25,0,0,1,290,186.83v7.38H289c-5.52,0-10.42,4.34-10.42,9.36v16.68h-7.75Z"/><g id="dk"><g class="cls-2"><path class="cls-1" d="M207.26,81.19a46.2,46.2,0,0,0-14.08,34,46.16,46.16,0,0,0,14.08,34,46.63,46.63,0,0,0,34.06,14.08,48.09,48.09,0,0,0,47.91-45.53c0-.88,0-1.71,0-2.53v-1.24a46.18,46.18,0,0,0-14.07-32.75,45.93,45.93,0,0,0-33.89-14A46.41,46.41,0,0,0,207.26,81.19Zm34.06,14.9A19.12,19.12,0,0,1,255,128.73a18.87,18.87,0,0,1-13.69,5.65,18.22,18.22,0,0,1-13.39-5.65,19.27,19.27,0,0,1,0-27.16A17.84,17.84,0,0,1,241.32,96.09Z"/></g><g class="cls-2"><path class="cls-1" d="M289.28,48.05V46.82a46.14,46.14,0,0,0-14.07-32.74A45.92,45.92,0,0,0,241.32,0a46.39,46.39,0,0,0-34.06,14.08,46.14,46.14,0,0,0-14.08,34,46.16,46.16,0,0,0,14.08,34A46.66,46.66,0,0,0,241.32,96.1,46.18,46.18,0,0,0,275.21,82a46.12,46.12,0,0,0,14-31.45C289.23,49.7,289.28,48.88,289.28,48.05ZM255,34.48A18.4,18.4,0,0,1,260.61,48,18.46,18.46,0,0,1,255,61.57a18.82,18.82,0,0,1-13.69,5.55,18.16,18.16,0,0,1-13.39-5.55A18.46,18.46,0,0,1,222.33,48a18.4,18.4,0,0,1,5.6-13.51,18,18,0,0,1,13.39-5.65A18.68,18.68,0,0,1,255,34.48Z"/></g><g class="cls-2"><path class="cls-1" d="M110.69,81.19a46.2,46.2,0,0,0-14.08,34,46.16,46.16,0,0,0,14.08,34,46.63,46.63,0,0,0,34.06,14.08,48.09,48.09,0,0,0,47.91-45.53c0-.88.05-1.71.05-2.53v-1.24a46.18,46.18,0,0,0-14.07-32.75,45.93,45.93,0,0,0-33.89-14A46.41,46.41,0,0,0,110.69,81.19Zm34.06,14.9a19.12,19.12,0,0,1,13.69,32.64,18.87,18.87,0,0,1-13.69,5.65,18.22,18.22,0,0,1-13.39-5.65,19.27,19.27,0,0,1,0-27.16A17.84,17.84,0,0,1,144.75,96.09Z"/></g><g class="cls-2"><path class="cls-1" d="M192.71,48.05V46.81a46.16,46.16,0,0,0-14.07-32.74A46,46,0,0,0,144.75,0a46.42,46.42,0,0,0-34.06,14.07,46.16,46.16,0,0,0-14.08,34,46.18,46.18,0,0,0,14.08,34A46.66,46.66,0,0,0,144.75,96.1,46.18,46.18,0,0,0,178.64,82a46.12,46.12,0,0,0,14-31.45C192.66,49.7,192.71,48.87,192.71,48.05ZM158.44,34.47A18.42,18.42,0,0,1,164,48a18.48,18.48,0,0,1-5.6,13.58,18.82,18.82,0,0,1-13.69,5.55,18.16,18.16,0,0,1-13.39-5.55A18.48,18.48,0,0,1,125.76,48a18.42,18.42,0,0,1,5.6-13.52,18,18,0,0,1,13.39-5.64A18.67,18.67,0,0,1,158.44,34.47Z"/></g><g class="cls-2"><path class="cls-1" d="M14.11,81.19A46.19,46.19,0,0,0,0,115.18a46.15,46.15,0,0,0,14.07,34,46.67,46.67,0,0,0,34.07,14.08,46.17,46.17,0,0,0,33.89-14.08,46.09,46.09,0,0,0,14-31.45c0-.88.06-1.71.06-2.53v-1.24A46.23,46.23,0,0,0,82.07,81.19a46,46,0,0,0-33.89-14A46.44,46.44,0,0,0,14.11,81.19Zm34.07,14.9a19.12,19.12,0,0,1,13.69,32.64,18.9,18.9,0,0,1-13.69,5.65,18.22,18.22,0,0,1-13.39-5.65,19.24,19.24,0,0,1,0-27.16A17.84,17.84,0,0,1,48.18,96.09Z"/></g><g class="cls-2"><path class="cls-1" d="M96.14,48.05V46.81A46.2,46.2,0,0,0,82.07,14.07,46,46,0,0,0,48.18,0,46.46,46.46,0,0,0,14.11,14.07,46.15,46.15,0,0,0,0,48.05,46.17,46.17,0,0,0,14.11,82,46.7,46.7,0,0,0,48.18,96.1,46.2,46.2,0,0,0,82.07,82a46.11,46.11,0,0,0,14-31.45C96.08,49.7,96.14,48.87,96.14,48.05ZM61.87,34.47A18.46,18.46,0,0,1,67.47,48a18.52,18.52,0,0,1-5.6,13.58,18.85,18.85,0,0,1-13.69,5.55,18.16,18.16,0,0,1-13.39-5.55A18.49,18.49,0,0,1,29.18,48a18.43,18.43,0,0,1,5.61-13.52,18,18,0,0,1,13.39-5.64A18.7,18.7,0,0,1,61.87,34.47Z"/></g></g></svg>