<svg id="Layer_1" data-name="Layer 1" xmlns="http://www.w3.org/2000/svg" viewBox="0 0 290 240"><defs><style>.cls-1{fill:#ff6400;}.cls-2{opacity:0.88;}</style></defs><path class="cls-1" d="M150.86,189.93l-2.42,7.32c-1.61-1.18-5.89-4-8.68-4-2.29-.06-4.28,1.06-4.09,3,.06,1.18,1.05,2.17,4.22,3.28,5.82,2.11,11.9,4.47,12.08,11.29.13,6.26-5.08,10.47-13.39,10.47a18.87,18.87,0,0,1-13.64-5.89l3.54-6.69c2.66,2.6,6.51,5.27,10.1,5.33,2.67.06,4.78-1.18,4.65-3s-2.23-2.66-4-3.34c-10-3.35-12.27-6.08-12.4-11.72S132,185.66,140,185.84A18.27,18.27,0,0,1,150.86,189.93Z"/><path class="cls-1" d="M192.71,203.64v.12c0,9.86-6.64,17.17-16.55,17.17-5,0-8.37-2-10.48-5.33v18.91h-8.74V187h8.74v4.71c2.17-3.35,5.58-5.33,10.48-5.33C186.14,186.34,192.71,193.78,192.71,203.64Zm-8.87-.07c0-5.27-3.59-8.86-8.55-8.86a8.54,8.54,0,0,0-8.62,8.86v.13c0,5.27,3.78,8.86,8.49,8.86a8.52,8.52,0,0,0,8.68-8.86Z"/><path class="cls-1" d="M231.64,203.45v.12c0,9.86-7.37,17.3-17.42,17.3s-17.36-7.32-17.36-17.23v-.07a16.94,16.94,0,0,1,17.36-17.29C224.2,186.28,231.64,193.59,231.64,203.45Zm-26,.06v.13a8.54,8.54,0,0,0,8.61,8.86c5,0,8.56-3.6,8.56-8.86v-.13a8.51,8.51,0,0,0-8.68-8.86C209.45,194.65,205.67,198.24,205.67,203.51Z"/><path class="cls-1" d="M255.76,194.89c-5.14,0-10.1,3.66-10.1,8.56v16.8h-8.74V187h8.74v6.14a12.18,12.18,0,0,1,11.16-6.58v8.37Z"/><path class="cls-1" d="M282.11,187v8.24h-9.05V209c0,2.48,1.36,3.9,3.66,3.9a20.51,20.51,0,0,0,5.39-.8v7.19a18,18,0,0,1-7.69,1.67c-6.26,0-10.1-3.22-10.1-10.23V195.2h-4.09V187h4.09v-9.05h8.74V187Z"/><g id="dk"><g class="cls-2"><path class="cls-1" d="M207.6,81.19a46.16,46.16,0,0,0-14.08,34,46.12,46.12,0,0,0,14.08,34,46.63,46.63,0,0,0,34.06,14.08,48.07,48.07,0,0,0,47.9-45.53c0-.88.06-1.71.06-2.53v-1.24a46.18,46.18,0,0,0-14.07-32.75,45.93,45.93,0,0,0-33.89-14A46.41,46.41,0,0,0,207.6,81.19Zm34.06,14.9a19.12,19.12,0,0,1,13.69,32.64,18.9,18.9,0,0,1-13.69,5.65,18.22,18.22,0,0,1-13.39-5.65,19.24,19.24,0,0,1,0-27.16A17.84,17.84,0,0,1,241.66,96.09Z"/></g><g class="cls-2"><path class="cls-1" d="M289.62,48.05V46.82a46.14,46.14,0,0,0-14.07-32.74A45.92,45.92,0,0,0,241.66,0,46.39,46.39,0,0,0,207.6,14.08a46.1,46.1,0,0,0-14.08,34A46.12,46.12,0,0,0,207.6,82,46.66,46.66,0,0,0,241.66,96.1,46.18,46.18,0,0,0,275.55,82a46.11,46.11,0,0,0,14-31.45C289.56,49.7,289.62,48.88,289.62,48.05ZM255.35,34.48A18.44,18.44,0,0,1,261,48a18.5,18.5,0,0,1-5.6,13.58,18.85,18.85,0,0,1-13.69,5.55,18.16,18.16,0,0,1-13.39-5.55A18.47,18.47,0,0,1,222.66,48a18.41,18.41,0,0,1,5.61-13.51,18,18,0,0,1,13.39-5.65A18.71,18.71,0,0,1,255.35,34.48Z"/></g><g class="cls-2"><path class="cls-1" d="M111,81.19a46.16,46.16,0,0,0-14.08,34,46.12,46.12,0,0,0,14.08,34,46.63,46.63,0,0,0,34.06,14.08A48.07,48.07,0,0,0,193,117.71c0-.88.06-1.71.06-2.53v-1.24A46.18,46.18,0,0,0,179,81.19a45.93,45.93,0,0,0-33.89-14A46.41,46.41,0,0,0,111,81.19Zm34.06,14.9a19.12,19.12,0,0,1,13.69,32.64,18.9,18.9,0,0,1-13.69,5.65,18.22,18.22,0,0,1-13.39-5.65,19.24,19.24,0,0,1,0-27.16A17.84,17.84,0,0,1,145.09,96.09Z"/></g><g class="cls-2"><path class="cls-1" d="M193.05,48.05V46.81A46.16,46.16,0,0,0,179,14.07,46,46,0,0,0,145.09,0,46.42,46.42,0,0,0,111,14.07,46.12,46.12,0,0,0,97,48.05,46.14,46.14,0,0,0,111,82,46.66,46.66,0,0,0,145.09,96.1,46.18,46.18,0,0,0,179,82a46.11,46.11,0,0,0,14-31.45C193,49.7,193.05,48.87,193.05,48.05ZM158.78,34.47A18.46,18.46,0,0,1,164.38,48a18.52,18.52,0,0,1-5.6,13.58,18.85,18.85,0,0,1-13.69,5.55,18.16,18.16,0,0,1-13.39-5.55A18.49,18.49,0,0,1,126.09,48a18.43,18.43,0,0,1,5.61-13.52,18,18,0,0,1,13.39-5.64A18.7,18.7,0,0,1,158.78,34.47Z"/></g><g class="cls-2"><path class="cls-1" d="M14.45,81.19a46.19,46.19,0,0,0-14.07,34,46.15,46.15,0,0,0,14.07,34,46.65,46.65,0,0,0,34.07,14.08A46.13,46.13,0,0,0,82.4,149.16a46.06,46.06,0,0,0,14-31.45c0-.88.06-1.71.06-2.53v-1.24A46.24,46.24,0,0,0,82.4,81.19a45.91,45.91,0,0,0-33.88-14A46.43,46.43,0,0,0,14.45,81.19Zm34.07,14.9A19.11,19.11,0,0,1,62.2,128.73a18.87,18.87,0,0,1-13.68,5.65,18.25,18.25,0,0,1-13.4-5.65,19.27,19.27,0,0,1,0-27.16A17.87,17.87,0,0,1,48.52,96.09Z"/></g><g class="cls-2"><path class="cls-1" d="M96.48,48.05V46.81A46.21,46.21,0,0,0,82.4,14.07,45.93,45.93,0,0,0,48.52,0,46.45,46.45,0,0,0,14.45,14.07a46.15,46.15,0,0,0-14.07,34A46.17,46.17,0,0,0,14.45,82,46.68,46.68,0,0,0,48.52,96.1,46.16,46.16,0,0,0,82.4,82a46.08,46.08,0,0,0,14-31.45C96.42,49.7,96.48,48.87,96.48,48.05ZM62.2,34.47A18.43,18.43,0,0,1,67.81,48,18.49,18.49,0,0,1,62.2,61.57a18.81,18.81,0,0,1-13.68,5.55,18.2,18.2,0,0,1-13.4-5.55A18.52,18.52,0,0,1,29.52,48a18.46,18.46,0,0,1,5.6-13.52,18.06,18.06,0,0,1,13.4-5.64A18.66,18.66,0,0,1,62.2,34.47Z"/></g></g></svg>