<svg id="Layer_1" data-name="Layer 1" xmlns="http://www.w3.org/2000/svg" viewBox="0 0 290 240"><defs><style>.cls-1{opacity:0.88;}.cls-2{fill:#7fff00;}</style></defs><g id="dk"><g class="cls-1"><path class="cls-2" d="M207.6,81.19a46.16,46.16,0,0,0-14.08,34,46.12,46.12,0,0,0,14.08,34,46.63,46.63,0,0,0,34.06,14.08,48.07,48.07,0,0,0,47.9-45.53c0-.88.06-1.71.06-2.53v-1.24a46.18,46.18,0,0,0-14.07-32.75,45.93,45.93,0,0,0-33.89-14A46.41,46.41,0,0,0,207.6,81.19Zm34.06,14.9a19.12,19.12,0,0,1,13.69,32.64,18.9,18.9,0,0,1-13.69,5.65,18.22,18.22,0,0,1-13.39-5.65,19.24,19.24,0,0,1,0-27.16A17.84,17.84,0,0,1,241.66,96.09Z"/></g><g class="cls-1"><path class="cls-2" d="M289.62,48.05V46.82a46.14,46.14,0,0,0-14.07-32.74A45.92,45.92,0,0,0,241.66,0,46.39,46.39,0,0,0,207.6,14.08a46.1,46.1,0,0,0-14.08,34A46.12,46.12,0,0,0,207.6,82,46.66,46.66,0,0,0,241.66,96.1,46.18,46.18,0,0,0,275.55,82a46.11,46.11,0,0,0,14-31.45C289.56,49.7,289.62,48.88,289.62,48.05ZM255.35,34.48A18.44,18.44,0,0,1,261,48a18.5,18.5,0,0,1-5.6,13.58,18.85,18.85,0,0,1-13.69,5.55,18.16,18.16,0,0,1-13.39-5.55A18.47,18.47,0,0,1,222.66,48a18.41,18.41,0,0,1,5.61-13.51,18,18,0,0,1,13.39-5.65A18.71,18.71,0,0,1,255.35,34.48Z"/></g><g class="cls-1"><path class="cls-2" d="M111,81.19a46.16,46.16,0,0,0-14.08,34,46.12,46.12,0,0,0,14.08,34,46.63,46.63,0,0,0,34.06,14.08A48.07,48.07,0,0,0,193,117.71c0-.88.06-1.71.06-2.53v-1.24A46.18,46.18,0,0,0,179,81.19a45.93,45.93,0,0,0-33.89-14A46.41,46.41,0,0,0,111,81.19Zm34.06,14.9a19.12,19.12,0,0,1,13.69,32.64,18.9,18.9,0,0,1-13.69,5.65,18.22,18.22,0,0,1-13.39-5.65,19.24,19.24,0,0,1,0-27.16A17.84,17.84,0,0,1,145.09,96.09Z"/></g><g class="cls-1"><path class="cls-2" d="M193.05,48.05V46.81A46.16,46.16,0,0,0,179,14.07,46,46,0,0,0,145.09,0,46.42,46.42,0,0,0,111,14.07,46.12,46.12,0,0,0,97,48.05,46.14,46.14,0,0,0,111,82,46.66,46.66,0,0,0,145.09,96.1,46.18,46.18,0,0,0,179,82a46.11,46.11,0,0,0,14-31.45C193,49.7,193.05,48.87,193.05,48.05ZM158.78,34.47A18.46,18.46,0,0,1,164.38,48a18.52,18.52,0,0,1-5.6,13.58,18.85,18.85,0,0,1-13.69,5.55,18.16,18.16,0,0,1-13.39-5.55A18.49,18.49,0,0,1,126.09,48a18.43,18.43,0,0,1,5.61-13.52,18,18,0,0,1,13.39-5.64A18.7,18.7,0,0,1,158.78,34.47Z"/></g><g class="cls-1"><path class="cls-2" d="M14.45,81.19a46.19,46.19,0,0,0-14.07,34,46.15,46.15,0,0,0,14.07,34,46.65,46.65,0,0,0,34.07,14.08A46.13,46.13,0,0,0,82.4,149.16a46.06,46.06,0,0,0,14-31.45c0-.88.06-1.71.06-2.53v-1.24A46.24,46.24,0,0,0,82.4,81.19a45.91,45.91,0,0,0-33.88-14A46.43,46.43,0,0,0,14.45,81.19Zm34.07,14.9A19.11,19.11,0,0,1,62.2,128.73a18.87,18.87,0,0,1-13.68,5.65,18.25,18.25,0,0,1-13.4-5.65,19.27,19.27,0,0,1,0-27.16A17.87,17.87,0,0,1,48.52,96.09Z"/></g><g class="cls-1"><path class="cls-2" d="M96.48,48.05V46.81A46.21,46.21,0,0,0,82.4,14.07,45.93,45.93,0,0,0,48.52,0,46.45,46.45,0,0,0,14.45,14.07a46.15,46.15,0,0,0-14.07,34A46.17,46.17,0,0,0,14.45,82,46.68,46.68,0,0,0,48.52,96.1,46.16,46.16,0,0,0,82.4,82a46.08,46.08,0,0,0,14-31.45C96.42,49.7,96.48,48.87,96.48,48.05ZM62.2,34.47A18.43,18.43,0,0,1,67.81,48,18.49,18.49,0,0,1,62.2,61.57a18.81,18.81,0,0,1-13.68,5.55,18.2,18.2,0,0,1-13.4-5.55A18.52,18.52,0,0,1,29.52,48a18.46,18.46,0,0,1,5.6-13.52,18.06,18.06,0,0,1,13.4-5.64A18.66,18.66,0,0,1,62.2,34.47Z"/></g></g><path class="cls-2" d="M139.44,215.8l3.13-5.57a17.66,17.66,0,0,0,10.9,4.7c3.5,0,5.82-1.26,5.82-3.45,0-1.44-1.25-2.63-4.32-3.82-10-3.69-13-6.19-13-11.58.06-5.76,5.44-9.83,12.65-9.7a17.33,17.33,0,0,1,10.76,3.94l-2.19,6.2c-1.56-1.25-5.88-3.44-8.7-3.44-2.13-.07-4.57.62-4.57,2.81,0,1.88,1.82,3,5.38,4.39,6.64,2.81,11.34,5,11.46,10.83-.06,6.13-5.13,10.27-13.33,10.33A20.09,20.09,0,0,1,139.44,215.8Z"/><path class="cls-2" d="M173.44,174h7.83v46.39h-7.83Z"/><path class="cls-2" d="M188.53,203.78v-.06a17,17,0,0,1,17.34-17.34c9.9,0,17.35,7.32,17.35,17.21v.13A16.87,16.87,0,0,1,205.87,221C196,221,188.53,213.74,188.53,203.78Zm26.8,0v-.12a9.44,9.44,0,0,0-9.52-9.83c-5.2,0-9.39,4-9.39,9.83v.12a9.46,9.46,0,0,0,9.52,9.77C211.26,213.55,215.33,209.54,215.33,203.78Z"/><path class="cls-2" d="M232.49,211.11V194.45h-4.26v-7.39h4.26v-9.32h7.82v9.32h9.27v7.39h-9.27v15.09c0,2.82,1.57,4.26,4.07,4.26a19.13,19.13,0,0,0,5.2-.81v6.51a18,18,0,0,1-7.27,1.56C236.24,221.06,232.49,217.93,232.49,211.11Z"/><path class="cls-2" d="M254.46,215.8l3.13-5.57a17.69,17.69,0,0,0,10.9,4.7c3.5,0,5.82-1.26,5.82-3.45,0-1.44-1.25-2.63-4.32-3.82-10-3.69-13-6.19-13-11.58.06-5.76,5.45-9.83,12.65-9.7a17.33,17.33,0,0,1,10.77,3.94l-2.19,6.2c-1.57-1.25-5.89-3.44-8.71-3.44-2.13-.07-4.57.62-4.57,2.81,0,1.88,1.82,3,5.39,4.39,6.63,2.81,11.33,5,11.45,10.83-.06,6.13-5.13,10.27-13.33,10.33A20.09,20.09,0,0,1,254.46,215.8Z"/></svg>